<svg preserveAspectRatio="none" width="100%" height="100%" overflow="visible" style="display: block;" viewBox="0 0 81.0997 36.174" fill="none" xmlns="http://www.w3.org/2000/svg">
<g id="Frame">
<path id="Vector" d="M47.5743 6.48955C47.7174 6.63302 47.9024 6.72912 48.1126 6.67987C49.9367 6.25191 51.7236 5.66924 53.3779 4.77836C53.577 4.67123 53.7298 4.42696 53.8049 4.22343C53.8906 3.99076 53.9253 3.67133 53.8564 3.42885C53.7991 3.22779 53.7001 2.99229 53.5003 2.89373C53.3091 2.79942 53.1198 2.80593 52.9295 2.90835C52.3993 3.19393 51.854 3.44932 51.2965 3.6769C50.2389 4.09121 49.1455 4.40017 48.0404 4.65944C47.5612 4.77186 47.3076 5.37904 47.3398 5.82994C47.356 6.05762 47.4063 6.32122 47.5743 6.48955Z" fill="var(--fill-0, #A7A7A7)"/>
<path id="Vector_2" d="M76.7646 7.03099C76.6894 6.87229 76.5692 6.68034 76.3726 6.66377C76.1649 6.64632 76.0307 6.75607 75.886 6.89178C75.159 7.57436 74.5685 8.38542 73.8468 9.07202C73.6088 9.28393 73.3561 9.47729 73.0877 9.6497C73.1712 9.47396 73.2564 9.29928 73.3462 9.12681C73.6228 8.59482 73.9302 8.07957 74.2646 7.58195C74.3953 7.39431 74.5219 7.20947 74.6076 6.99167C74.7272 6.68886 74.7336 6.27869 74.6047 5.97763C74.5219 5.78392 74.2926 5.50975 74.0417 5.62057C73.9034 5.68169 73.8206 5.73686 73.7097 5.85172C73.6741 5.88854 73.6403 5.9271 73.6058 5.96509C73.5259 6.05424 73.4466 6.14391 73.3672 6.234C73.2079 6.41563 73.0504 6.59895 72.894 6.78355C72.5965 7.13543 72.3042 7.4918 72.0124 7.84841C71.4407 8.54633 70.8689 9.24449 70.258 9.90857C70.0882 10.093 69.9161 10.2752 69.7399 10.4542C69.8449 10.2455 69.9464 10.0348 70.0456 9.82321C70.4377 8.98427 70.793 8.12841 71.2026 7.29751C71.3222 7.0548 71.4465 6.81407 71.5766 6.57672C71.639 6.46248 71.7032 6.34911 71.7686 6.23662C71.8036 6.17647 71.8409 6.11731 71.8747 6.05657C71.9745 5.87909 72.0224 5.69404 72.0708 5.49646C72.121 5.28831 72.0959 4.94624 72.0025 4.74903C71.9173 4.56881 71.8106 4.43894 71.6104 4.38179C71.303 4.29398 71.0317 4.6981 70.8479 4.89748C70.7265 5.02895 70.6052 5.16033 70.4838 5.29152C70.216 5.58096 69.947 5.86987 69.6781 6.15844C69.1022 6.77667 68.5246 7.39361 67.9475 8.01102C67.4948 8.49545 67.0414 8.97937 66.5893 9.4648C66.7433 9.01128 66.8944 8.55631 67.0432 8.10057C67.1768 7.69117 67.3133 7.28246 67.4411 6.87136C67.5846 6.41078 67.6266 5.81212 67.2935 5.41507C67.0735 5.15269 66.7083 5.08026 66.4218 5.28859C66.1505 5.4858 65.9941 5.82655 65.8185 6.10646C65.6931 6.3067 65.5682 6.507 65.4428 6.70741C65.2082 7.08251 64.9737 7.45767 64.738 7.83219C64.3144 8.50596 63.8879 9.17838 63.4404 9.83704C63.022 10.447 62.5815 11.0581 62.0459 11.5701C61.8715 11.7228 61.6842 11.8605 61.4794 11.9694C61.3324 12.0308 61.1795 12.0736 61.0214 12.0947C61.0231 12.0869 61.0243 12.0791 61.0261 12.0713C61.0313 12.0504 61.0371 12.0294 61.043 12.0085C61.1095 11.7761 61.1906 11.548 61.2787 11.3229C61.3224 11.2097 61.3697 11.0976 61.417 10.9858L61.4181 10.9833C61.4467 10.9196 61.4753 10.8561 61.5045 10.7927C61.9164 9.90175 62.3937 9.0404 62.8966 8.1983C63.0057 8.01609 63.1154 7.83417 63.2292 7.65488C63.3464 7.47039 63.3896 7.23082 63.4054 7.01857C63.4205 6.82048 63.4141 6.59142 63.3272 6.40798C63.2718 6.29129 63.2006 6.18015 63.0944 6.10325C62.9474 5.99659 62.7385 6.03545 62.5996 6.12985C61.3656 6.96763 60.1439 7.8253 58.9531 8.7237V8.72073C58.956 8.69278 58.9583 8.66477 58.9612 8.63683C58.9717 8.53256 58.9846 8.42842 58.9997 8.32456C59.0149 8.22129 59.0324 8.11831 59.0517 8.0158C59.061 7.96743 59.0861 7.8655 59.1007 7.80231C59.1415 7.65657 59.1841 7.5117 59.236 7.36928C59.2535 7.32184 59.2728 7.27546 59.2915 7.22867C59.3154 7.17522 59.358 7.07977 59.3796 7.03735C59.4128 6.97236 59.449 6.90917 59.4852 6.84575C59.6678 6.61359 59.8475 6.37904 60.0219 6.14012C60.1754 5.92926 60.2763 5.71092 60.3177 5.45034C60.3533 5.22409 60.3504 4.91663 60.2495 4.70292C60.1742 4.54419 60.054 4.35226 59.8574 4.33566C59.6555 4.31869 59.5067 4.42244 59.3714 4.56371C59.1106 4.83561 58.886 5.13241 58.6911 5.44694C58.0638 6.22192 57.3868 6.95293 56.6636 7.64397C56.5782 7.72559 56.4921 7.80675 56.4061 7.88785C56.38 7.51946 56.2909 7.13852 56.1192 6.81821C55.9208 6.44789 55.6412 6.14403 55.2138 6.05564C54.8429 5.97897 54.4819 6.11439 54.1525 6.26644C53.8207 6.41965 53.5214 6.63629 53.2403 6.86792C52.5502 7.43637 51.9341 8.08482 51.3557 8.76501C51.4319 8.61996 51.5086 8.47492 51.5811 8.32806C51.7385 8.00956 51.8318 7.62016 51.7425 7.2649C51.6803 7.01769 51.568 6.7762 51.3183 6.68186C50.923 6.53255 50.5788 6.93379 50.3375 7.19424C50.0451 7.50995 49.7465 7.81783 49.4661 8.14474C49.1043 8.5664 48.7563 8.99979 48.4123 9.43598C48.0134 9.94154 47.6204 10.4516 47.2271 10.9615C47.4898 10.4057 47.7272 9.83039 47.835 9.22885C47.9149 8.78321 47.907 8.22584 47.6134 7.85197C47.3967 7.57594 47.0823 7.50995 46.7511 7.57792C46.573 7.6145 46.4049 7.69694 46.2408 7.77133C46.0769 7.84578 45.919 7.93242 45.7646 8.02478C45.5008 8.18243 45.2458 8.35496 44.9956 8.53396C44.9638 8.45199 44.9202 8.3762 44.8602 8.31324C44.7327 8.17975 44.5431 8.0623 44.3488 8.1273C42.9001 8.6115 41.5418 9.35389 40.3653 10.3287C39.7413 10.8457 39.1566 11.4005 38.634 12.021C38.0531 12.7108 37.5076 13.4502 37.1535 14.2842C37.0073 14.6284 36.9083 15.0086 36.8703 15.3889C36.2711 15.848 35.6695 16.304 35.0661 16.7576C35.9029 15.4756 36.727 14.1852 37.5261 12.8794C37.7675 12.485 38.0099 12.0903 38.2318 11.6844C38.3499 11.4684 38.472 11.2467 38.5526 11.0141C38.6887 10.6217 38.7156 10.0881 38.4223 9.75174C38.2773 9.58546 38.0996 9.52688 37.8902 9.55675C37.7262 9.58015 37.5991 9.69935 37.4805 9.80093C37.284 9.96908 37.1206 10.181 36.9562 10.3795C36.8318 10.5299 36.7097 10.682 36.5881 10.8346C36.5062 10.6139 36.3992 10.4078 36.26 10.209C36.1158 10.0033 35.9093 9.81067 35.6816 9.70209C34.8281 9.29507 33.909 9.75559 33.2079 10.2628C32.5312 10.7522 31.9238 11.3306 31.3399 11.9276C31.3117 11.949 31.2839 11.9718 31.2575 11.9973C31.1486 12.1027 31.035 12.2024 30.9177 12.298C30.743 12.4231 30.5585 12.5318 30.3615 12.6176C30.2014 12.6691 30.0375 12.7024 29.8698 12.7163C29.7763 12.7137 29.6832 12.7071 29.5913 12.6928C29.5936 12.6213 29.5948 12.5497 29.5942 12.478C29.588 11.7715 29.4079 10.9847 28.9506 10.4287C28.6796 10.0992 28.2828 9.93401 27.8608 9.97287C27.6361 9.99352 27.4364 10.0988 27.2697 10.2477C27.1819 10.2532 27.0956 10.2777 27.0183 10.3294C25.7672 11.1679 24.6268 12.1444 23.6035 13.2363C23.5801 13.2561 23.5578 13.2771 23.5376 13.3006C23.5149 13.327 23.4921 13.3532 23.4694 13.3796C23.2115 13.6602 22.9618 13.9489 22.7195 14.2441C21.5917 15.5335 20.4315 16.7957 19.166 17.9519C18.714 18.3646 18.2484 18.7624 17.7667 19.1401C17.1997 19.5731 16.6096 19.9761 15.9871 20.3254C15.7844 20.4391 15.6311 20.667 15.5518 20.879C15.465 21.1114 15.4309 21.4318 15.5022 21.6739C15.5622 21.8775 15.6662 22.112 15.8692 22.2107C16.0613 22.304 16.2633 22.3053 16.4539 22.1983C17.7418 21.4757 18.9094 20.5353 19.9964 19.541C20.2984 19.2647 20.5942 18.9815 20.8856 18.6942C20.8987 18.7488 20.9132 18.8033 20.9303 18.8568C21.1292 19.4816 21.5537 20.0385 22.1646 20.309C22.7699 20.577 23.4399 20.5943 24.0767 20.4276C25.8332 19.9675 27.1135 18.6345 28.0365 17.1241C27.9254 17.6439 27.8797 18.1733 28.0115 18.7011C28.1567 19.2831 28.5162 19.8494 29.1467 19.9659C29.607 20.0509 30.0638 19.8474 30.4635 19.6438C31.0493 19.3453 31.5787 18.9284 32.0725 18.4875C31.8375 18.839 31.6015 19.19 31.3657 19.541C30.5136 20.1887 29.6658 20.8427 28.827 21.5079C27.7895 21.7858 26.7548 22.0746 25.724 22.3767C24.6025 22.7055 23.4852 23.0491 22.3732 23.4092C21.3072 23.7544 20.246 24.1146 19.1909 24.4915C18.1269 24.8717 17.0693 25.2696 16.0181 25.6836C15.069 26.0575 14.1259 26.447 13.1907 26.8542C12.2992 27.2423 11.4149 27.6466 10.5393 28.0694C9.71621 28.467 8.90089 28.8809 8.09585 29.314C7.33847 29.7214 6.59014 30.1456 5.85365 30.5898C5.50366 30.8009 5.15641 31.0166 4.81226 31.2371C4.81764 31.2297 4.82301 31.2224 4.82839 31.2149C5.82149 29.8447 6.80345 28.4665 7.78283 27.0865C8.52043 26.0471 9.25727 25.0073 9.99592 23.9686C10.0305 23.9441 10.0651 23.9197 10.0995 23.8951C11.057 23.2104 11.9945 22.4982 12.9212 21.7724C13.8998 21.0062 14.8631 20.2204 15.8133 19.4193C16.8232 18.5679 17.8185 17.699 18.7988 16.8135C19.798 15.9108 20.7818 14.991 21.7473 14.0524C22.6938 13.1323 23.6229 12.1941 24.5285 11.2335C25.3808 10.3295 26.2126 9.4057 27.0119 8.45438C27.7749 7.54612 28.5139 6.61464 29.2001 5.6467C29.4853 5.24427 29.761 4.83505 30.0226 4.41678C30.3497 3.89353 30.719 3.33757 30.8835 2.74057C31.0118 2.27476 31.1087 1.75822 30.9501 1.28534C30.877 1.06729 30.7879 0.855654 30.6189 0.691646C30.4478 0.525657 30.2986 0.452753 30.0752 0.382114C29.8134 0.299308 29.5087 0.326753 29.243 0.379002C28.9131 0.443888 28.5906 0.573001 28.2877 0.715789C27.5273 1.07417 26.8413 1.58657 26.1922 2.11472C25.5489 2.63824 24.9377 3.20543 24.3444 3.78469C23.1398 4.96067 21.9724 6.17466 20.8392 7.41957C19.7239 8.64493 18.6417 9.90023 17.5873 11.1784C16.4994 12.4971 15.4397 13.8391 14.4007 15.1966C13.4029 16.5005 12.4252 17.8196 11.4594 19.1473C10.6841 20.2131 9.91744 21.2849 9.15306 22.3584C8.39668 22.8885 7.62763 23.4021 6.83291 23.8727C6.29182 24.193 5.73633 24.5015 5.15169 24.7363C4.96184 24.8054 4.76482 24.8653 4.56441 24.8868C4.54658 24.8855 4.52894 24.8834 4.51131 24.8807C4.44454 24.8552 4.37503 24.8465 4.3025 24.8569C4.19763 24.8482 4.09954 24.8739 4.00834 24.934C3.8118 25.0434 3.6426 25.2781 3.57216 25.4875C3.48812 25.7375 3.44663 26.0248 3.52273 26.2823C3.57894 26.4726 3.68731 26.7448 3.89083 26.8193C4.01061 26.8632 4.1218 26.9119 4.24837 26.9206C4.38701 26.9303 4.53008 26.9242 4.66824 26.9065C4.86903 26.8808 5.0652 26.8198 5.25496 26.7509C5.644 26.6099 6.01952 26.4404 6.38651 26.2531C6.15354 26.5811 5.92098 26.9094 5.68757 27.237C4.70899 28.6103 3.72484 29.9796 2.72721 31.3391C2.22189 32.0277 1.71308 32.7137 1.19993 33.3964C0.88964 33.8092 0.497586 34.2266 0.434774 34.7625C0.395918 35.094 0.434397 35.4712 0.670741 35.7295C0.824282 35.8973 1.05167 35.9748 1.27566 35.931C1.5138 35.8845 1.71232 35.7147 1.89208 35.5663C2.15804 35.3467 2.42588 35.1298 2.69769 34.9175C3.39042 34.386 4.10379 33.8816 4.83291 33.4013C5.65937 32.8569 6.50524 32.3421 7.36478 31.8517C8.2885 31.3247 9.22804 30.8257 10.1792 30.3501C11.2028 29.8381 12.2399 29.3531 13.2868 28.8909C14.3982 28.4002 15.5209 27.9351 16.6522 27.492C16.7555 27.4515 16.859 27.4114 16.9624 27.3713C18.3156 26.8505 19.6802 26.3594 21.0538 25.8952C22.4001 25.4403 23.7554 25.0118 25.1169 24.6046C24.4538 25.1935 23.8029 25.7959 23.1687 26.4157C22.2927 27.2721 21.4182 28.1474 20.6806 29.1278C19.8473 30.2355 19.1812 31.4734 18.8921 32.8387C18.7486 33.516 18.7455 34.2887 19.0552 34.9233C19.1998 35.22 19.416 35.5115 19.719 35.6588C19.9407 35.7666 20.1757 35.8354 20.4221 35.8315C20.6838 35.8273 20.9259 35.7963 21.1709 35.7021C21.4322 35.6017 21.6819 35.4846 21.9174 35.3333C22.3615 35.048 22.7682 34.692 23.1375 34.3158C23.9865 33.4508 24.6365 32.4182 25.2913 31.4055C26.661 29.2875 28.0667 27.1933 29.4776 25.1027C29.9472 24.4069 30.4173 23.7116 30.8873 23.016C32.3444 22.6474 33.8068 22.2991 35.2739 21.9722C37.034 21.5801 38.8005 21.2167 40.5719 20.8798C41.8469 20.6372 43.1247 20.4092 44.4046 20.1935C44.1476 20.8784 43.9468 21.589 43.9155 22.3197C43.9074 22.5097 43.9246 22.705 43.9628 22.8905C44.022 23.1778 44.2157 23.4952 44.5436 23.4798C44.8679 23.4646 45.1216 23.1288 45.2075 22.8388C45.501 21.8486 45.83 20.8697 46.1867 19.901C54.6905 18.5487 63.2811 17.1921 71.8847 16.8542C72.3736 16.835 72.6717 16.5231 72.6496 16.2379C72.6175 15.8206 72.3963 15.5444 71.852 15.5444C63.5798 15.8698 55.3524 16.7758 47.1199 17.7203C47.2255 17.5273 47.332 17.3347 47.4401 17.1431C47.9088 16.3119 48.402 15.4945 48.9151 14.6899C48.9832 14.9044 49.0712 15.1117 49.1879 15.3054C49.3289 15.5395 49.5124 15.7667 49.7688 15.8801C50.0417 16.0007 50.3114 16.0286 50.6054 15.9585C51.196 15.8179 51.6956 15.3888 52.1311 14.9909C52.6231 14.5414 53.0587 14.0305 53.472 13.509C53.897 12.9724 54.302 12.419 54.6909 11.8546C55.1163 11.3491 55.5707 10.8686 56.0504 10.409C56.5919 9.89037 57.1452 9.3851 57.6795 8.86029C57.659 9.15201 57.6516 9.44292 57.6551 9.73085C56.8557 10.371 56.0753 11.0387 55.3524 11.7633C54.8705 12.2462 54.3784 12.7798 54.0672 13.3931C53.8741 13.7735 53.7539 14.1702 53.742 14.5986C53.7332 14.9196 53.8084 15.2763 54.0112 15.5341C54.293 15.8924 54.7355 15.9121 55.1505 15.8693C55.5346 15.8298 55.9102 15.6995 56.2617 15.5444C56.7312 15.3371 57.184 15.0903 57.5909 14.7759C58.0509 14.4203 58.4495 14.0047 58.75 13.5053C59.1223 12.8854 59.2675 12.1375 59.1584 11.4243C59.1246 11.2028 59.0867 10.9825 59.0522 10.7616C59.5546 10.3805 60.0634 10.0079 60.575 9.64083C60.5616 9.66982 60.5476 9.69853 60.5342 9.72764C60.2845 10.2804 60.0389 10.8443 59.8883 11.4337C59.722 12.0844 59.5861 12.819 59.8556 13.4638C59.949 13.6876 60.1089 13.9172 60.3341 14.0241C60.5937 14.1474 60.8306 14.1475 61.1124 14.0986C61.5366 14.025 61.9421 13.7957 62.2741 13.528C62.7344 13.1565 63.1288 12.7109 63.4894 12.2439C63.9888 11.5961 64.441 10.9109 64.8862 10.2247C64.9387 10.1435 64.9906 10.0617 65.0425 9.98034C64.9165 10.332 64.7876 10.6829 64.6534 11.0317C64.5629 11.2664 64.4707 11.5003 64.3762 11.7334C64.3319 11.8415 64.2875 11.9495 64.242 12.0572C64.2187 12.1137 64.1948 12.1701 64.1709 12.2264C64.1382 12.3032 64.0302 12.5502 64.1755 12.2165C64.0652 12.4703 63.9853 12.7076 63.9888 12.9896C63.9917 13.1898 64.0384 13.4822 64.1784 13.6422C64.2934 13.7739 64.4556 13.8804 64.6405 13.8204C64.8232 13.7615 64.9859 13.6092 65.0723 13.4383C65.2386 13.2206 65.4317 13.0187 65.6131 12.8164C66.0192 12.363 66.4323 11.9156 66.846 11.469C67.4744 10.7903 68.1056 10.1142 68.7369 9.4386C68.6488 9.6106 68.5578 9.78179 68.4639 9.9507C68.3332 10.1832 68.1815 10.4068 68.0706 10.6494C67.853 11.1257 67.7282 11.6475 67.8308 12.1711C67.895 12.4979 68.066 12.8615 68.3723 13.0267C68.6903 13.1984 69.0047 13.1402 69.3134 12.9841C69.5689 12.8548 69.7685 12.6386 69.9733 12.4427C70.548 11.8923 71.0847 11.3047 71.6029 10.7007C71.695 11.0534 71.9232 11.3828 72.2522 11.5499C72.4033 11.6267 72.5778 11.6978 72.7505 11.706C73.0084 11.7181 73.1904 11.6625 73.4081 11.5253C74.0125 11.1452 74.5364 10.6447 75.0149 10.1181C75.5184 9.56358 75.9898 8.98182 76.5371 8.46815C76.701 8.31429 76.7996 7.9882 76.8329 7.77845C76.8685 7.55219 76.8656 7.24471 76.7646 7.03099ZM16.5982 15.0273C16.6875 14.9134 16.7773 14.7999 16.867 14.6862C18.0894 13.1438 19.3455 11.6277 20.647 10.1511C21.9836 8.63496 23.3676 7.16023 24.8051 5.73931C25.5802 4.97321 26.3734 4.21532 27.2322 3.54241C27.7633 3.13989 28.333 2.75915 28.9508 2.50545C29.0907 2.45688 29.2339 2.41689 29.3797 2.39228C29.1498 2.82017 28.8854 3.23316 28.6193 3.63766C28.2912 4.13619 27.9454 4.62294 27.588 5.10082C27.4027 5.34858 27.2136 5.5936 27.0224 5.8369C26.2283 6.83548 25.3934 7.80126 24.5334 8.74354C23.5796 9.78862 22.5952 10.8057 21.59 11.8013C20.5525 12.8287 19.4924 13.8333 18.4138 14.8175C17.3509 15.7874 16.2701 16.7377 15.1718 17.6674C14.6535 18.1061 14.1314 18.5404 13.605 18.9694C14.585 17.6421 15.58 16.3256 16.5982 15.0273ZM38.9394 14.1608C39.4885 13.4302 40.1164 12.7622 40.811 12.1685C41.6323 11.4946 42.5375 10.9283 43.5056 10.4914C43.5093 10.5345 43.5154 10.5762 43.524 10.6165C43.4143 10.9242 43.2918 11.2273 43.1579 11.5256C42.8377 12.1968 42.4581 12.8378 42.0224 13.4406C41.5056 14.1227 40.9181 14.7487 40.2649 15.302C39.951 15.5597 39.6219 15.8088 39.2555 15.9839C39.1296 16.0301 39.0009 16.0628 38.8675 16.0783C38.7886 16.074 38.7113 16.0612 38.6345 16.0411C38.5779 16.0133 38.524 15.9812 38.4728 15.9443C38.4317 15.9013 38.3939 15.8559 38.3585 15.8081C38.335 15.7635 38.3139 15.7179 38.2943 15.6715C38.2821 15.6256 38.2713 15.5794 38.2625 15.5329C38.2615 15.5112 38.2609 15.4895 38.2606 15.4679C38.2678 15.4146 38.2765 15.3616 38.2871 15.3089C38.3149 15.2218 38.3464 15.1362 38.3814 15.0518C38.5398 14.7386 38.7339 14.4451 38.9394 14.1608ZM26.3706 16.7071C26.0647 17.081 25.7255 17.4258 25.3468 17.7262C25.0245 17.9589 24.6787 18.1551 24.3106 18.3061C24.0267 18.4058 23.7341 18.4763 23.434 18.4988C23.2505 18.4952 23.0696 18.4708 22.8933 18.4202C22.7764 18.3698 22.6661 18.3077 22.5621 18.234C22.5117 18.1866 22.4646 18.136 22.4206 18.0828C22.3993 18.0461 22.3789 18.0088 22.3607 17.9706C22.355 17.9502 22.3489 17.9296 22.344 17.9089C22.3426 17.8853 22.3417 17.8615 22.3412 17.8378C22.3472 17.7937 22.3543 17.7497 22.3629 17.706C22.3989 17.5944 22.4411 17.4853 22.4887 17.378C22.7597 16.8628 23.1153 16.3886 23.4761 15.9311C23.5467 15.8429 23.6191 15.7563 23.6913 15.6694C23.8693 15.4648 24.0463 15.2592 24.2233 15.0537C24.9523 14.2478 25.7498 13.5053 26.6073 12.8362C26.6942 12.7703 26.7818 12.7056 26.8698 12.6415C26.9249 12.7941 26.9906 12.9425 27.0662 13.0833C27.2568 13.4386 27.5094 13.7571 27.8103 14.0229C27.6766 14.4028 27.5173 14.7742 27.3438 15.1369C27.0658 15.6877 26.7455 16.2167 26.3706 16.7071ZM31.1125 17.0604C30.7236 17.3721 30.3086 17.6613 29.8523 17.8639C29.7549 17.9 29.6561 17.9283 29.5531 17.9431C29.5181 17.9404 29.4834 17.9355 29.449 17.9283C29.4332 17.9198 29.4175 17.9111 29.4024 17.9016C29.3989 17.8975 29.3956 17.8932 29.3921 17.8891C29.3886 17.8821 29.3846 17.8752 29.3814 17.8682C29.3765 17.8489 29.3713 17.8298 29.3672 17.8104C29.3646 17.7666 29.3635 17.7228 29.3635 17.6789C29.3755 17.5914 29.3923 17.5046 29.4114 17.4183C29.4929 17.1256 29.5965 16.8405 29.7201 16.563C29.9278 16.1481 30.1767 15.7566 30.4496 15.3816C30.8339 14.8785 31.2524 14.4086 31.6873 13.9501C31.8238 13.8397 31.956 13.7239 32.082 13.6019C32.1545 13.5317 32.2158 13.4453 32.2664 13.3518C32.6203 12.9958 32.9849 12.6505 33.3708 12.3297C33.6841 12.0812 34.0162 11.8497 34.38 11.6827C34.5192 11.6316 34.6624 11.5941 34.8099 11.5782C34.8755 11.582 34.9404 11.5914 35.0041 11.6071C35.0512 11.6302 35.0962 11.6567 35.1392 11.6866C35.1743 11.7228 35.2072 11.761 35.2378 11.8011C35.2604 11.8435 35.2806 11.8868 35.2996 11.9308C35.3189 11.9998 35.3348 12.0696 35.3474 12.1402C35.3511 12.198 35.3528 12.2559 35.3526 12.3138C35.3499 12.3377 35.3479 12.3616 35.3446 12.3853C34.2877 13.7105 33.2253 15.0389 32.0189 16.2316C31.7277 16.5195 31.4269 16.7977 31.1125 17.0604ZM24.91 29.1717C24.4388 29.8921 23.9888 30.6291 23.4996 31.3373C23.3901 31.4958 23.2777 31.652 23.1631 31.8069C22.7737 32.3132 22.3479 32.7904 21.8594 33.2032C21.6189 33.3912 21.3635 33.5616 21.0868 33.6909C20.9434 33.7437 20.7959 33.7817 20.6442 33.7976C20.569 33.7936 20.495 33.7832 20.4221 33.7651C20.3861 33.7483 20.3507 33.7298 20.3166 33.7093C20.307 33.698 20.2978 33.6862 20.2886 33.6745C20.2758 33.65 20.2638 33.625 20.2526 33.5997C20.2469 33.5765 20.242 33.5531 20.2372 33.5297C20.2349 33.4839 20.234 33.4379 20.2343 33.3921C20.2482 33.2737 20.2679 33.1564 20.293 33.04C20.3872 32.7005 20.5089 32.3671 20.6531 32.0456C20.9126 31.5206 21.2251 31.024 21.5706 30.5511C22.2717 29.6357 23.1052 28.8141 23.9281 28.0096C24.7837 27.1734 25.6695 26.3684 26.5747 25.5863C27.0636 25.1639 27.5588 24.7487 28.0579 24.3382C28.1106 24.2951 28.1639 24.2527 28.2168 24.2096C27.5969 25.1288 26.978 26.0487 26.3633 26.9715C25.8761 27.703 25.3912 28.4361 24.91 29.1717ZM36.7387 19.6133C35.5165 19.8736 34.2972 20.1476 33.0812 20.4357C33.9516 19.7814 34.8232 19.129 35.6933 18.4742C36.2216 18.0767 36.748 17.6768 37.273 17.2748C37.5261 17.6615 37.8498 17.9495 38.3118 18.0755C38.7886 18.2055 39.2907 18.0394 39.7152 17.8279C40.058 17.6571 40.3651 17.4191 40.6619 17.1792C40.9877 16.916 41.3049 16.6421 41.6047 16.3496C42.1763 15.7916 42.6801 15.1725 43.1397 14.5198C43.9535 13.3641 44.5826 12.0532 44.9781 10.6927C45.22 10.511 45.4651 10.3336 45.716 10.1647C45.8718 10.0597 46.0303 9.95706 46.1928 9.86137C45.8821 10.5339 45.5346 11.1896 45.1855 11.8428C44.7682 12.6238 44.3433 13.4008 43.9364 14.1872C43.7236 14.5986 43.5157 15.0126 43.3201 15.4325C43.2236 15.6397 43.1553 15.8368 43.1391 16.0681C43.1251 16.2675 43.1356 16.4978 43.2282 16.6803C43.2887 16.7997 43.3667 16.9106 43.4781 16.9878C43.6352 17.0966 43.8517 17.0589 44.0029 16.9659C44.2507 16.8133 44.4716 16.6135 44.6851 16.4178C44.9072 16.2143 45.1159 15.9964 45.319 15.774C45.8277 15.217 46.3028 14.6295 46.7711 14.0386C47.0956 13.6291 47.4154 13.2157 47.7342 12.8017C47.0194 14.29 46.3357 15.795 45.7121 17.324C45.5965 17.5473 45.4832 17.7719 45.3724 17.9977C45.1789 18.0292 44.9854 18.0603 44.7919 18.0923C43.4246 18.3194 42.0596 18.5613 40.6976 18.8187C39.375 19.0687 38.0552 19.3331 36.7387 19.6133ZM51.7835 13.0576C51.6439 13.2013 51.4991 13.3397 51.3492 13.4727C51.158 13.6309 50.9549 13.7779 50.7335 13.8898C50.6494 13.9218 50.563 13.9462 50.4741 13.9596C50.4378 13.9571 50.4018 13.9521 50.3662 13.9442C50.3468 13.9335 50.3279 13.922 50.3096 13.9096C50.284 13.8809 50.2597 13.8512 50.2374 13.8199C50.2102 13.7649 50.1862 13.7083 50.1645 13.6508C50.1132 13.4646 50.0782 13.2743 50.053 13.0827C50.0502 13.0526 50.0474 13.0226 50.0451 12.9925C50.1657 12.8187 50.2863 12.6448 50.4092 12.4727C50.8144 11.9117 51.2317 11.3594 51.6682 10.8224C52.0772 10.3193 52.502 9.82771 52.9556 9.3641C53.16 9.1551 53.3714 8.95288 53.5909 8.75982C53.8617 8.53245 54.1507 8.31867 54.4681 8.16312C54.572 8.12245 54.6796 8.09165 54.79 8.07648C54.8263 8.07881 54.8622 8.08383 54.8977 8.09136C54.9159 8.10128 54.9339 8.11154 54.9512 8.12315C54.9634 8.13745 54.9755 8.1518 54.9868 8.16691C54.9999 8.19445 55.0121 8.22228 55.0234 8.25058C55.0347 8.29516 55.0445 8.34008 55.0527 8.3853C55.0539 8.41313 55.0544 8.44108 55.0544 8.46891C55.0509 8.49283 55.0469 8.51681 55.0428 8.54067C55.0303 8.57906 55.0163 8.61705 55.0018 8.65468C54.8545 8.93724 54.6644 9.20499 54.4937 9.47087C54.2762 9.80979 54.054 10.1459 53.8267 10.4783C53.6946 10.6714 53.5603 10.8628 53.4243 11.0532C52.9183 11.7525 52.3855 12.4384 51.7835 13.0576ZM57.9502 12.1013C57.946 12.1102 57.9418 12.119 57.9377 12.1278C57.9389 12.1225 57.9402 12.1173 57.9414 12.1123C58.0094 11.9502 57.9806 12.0374 57.9502 12.1013ZM57.9084 12.1838C57.8829 12.2332 57.8557 12.2815 57.8266 12.3287C57.7223 12.4686 57.606 12.5992 57.4812 12.7212C57.1955 12.9741 56.8796 13.1926 56.5464 13.3777C56.4604 13.4256 56.3726 13.47 56.2843 13.5134C56.0611 13.6145 55.8304 13.703 55.5936 13.7673C55.7559 13.5885 55.9251 13.4159 56.0961 13.2474C56.223 13.1224 56.3528 13.0005 56.4832 12.8793C56.9214 12.4796 57.3726 12.0942 57.8328 11.7191C57.8583 11.8739 57.8846 12.0287 57.9084 12.1838ZM72.74 10.4412C72.7324 10.4618 72.7254 10.4826 72.7167 10.503C72.6426 10.6709 72.6846 10.5708 72.74 10.4412Z" fill="var(--fill-0, #A7A7A7)"/>
<path id="Vector_3" d="M78.6574 4.29746C78.7122 4.24185 78.7735 4.17078 78.8487 4.08737C78.9246 4.00394 78.9998 3.91744 79.0821 3.82474C79.1609 3.73206 79.2361 3.64246 79.305 3.55904C79.3732 3.47562 79.4316 3.40147 79.4794 3.33967C79.5273 3.28097 79.5512 3.2408 79.5582 3.21918C79.5652 3.19755 79.5687 3.17901 79.5687 3.16356C79.5687 3.10486 79.5238 3.07396 79.4351 3.07396C79.3114 3.07396 79.1539 3.10795 78.9654 3.17592L78.9689 3.20373C78.9689 3.21918 78.9584 3.25625 78.9345 3.31805C78.9141 3.38292 78.8867 3.46326 78.8522 3.55904C78.767 3.81548 78.7017 4.06265 78.6574 4.29746ZM78.3831 5.28614C78.5407 5.28614 78.6982 5.23362 78.8557 5.12857C79.0133 5.02352 79.1644 4.87831 79.3079 4.69294C79.0004 4.80041 78.7781 5.0463 78.5885 5.13166L78.5407 5.13784C78.4141 5.13784 78.3248 5.0606 78.2769 4.90921C78.239 4.80107 78.2186 4.66821 78.2186 4.51064C78.2186 4.22022 78.2565 3.92979 78.3353 3.64246C78.3761 3.46635 78.424 3.31804 78.4823 3.19446C78.5407 3.07396 78.592 3.0029 78.6434 2.98128L78.6399 2.95656C78.6399 2.93802 78.6504 2.92257 78.6743 2.90713C78.7052 2.8855 78.784 2.86078 78.9036 2.83297C79.0168 2.81753 79.1165 2.81135 79.2017 2.81135C79.3353 2.81135 79.459 2.82679 79.5687 2.8546C79.6918 2.89168 79.7811 2.95347 79.8423 3.03998C79.8768 3.09559 79.8943 3.15429 79.8943 3.20991C79.8943 3.3922 79.7537 3.64863 79.4724 3.97614C79.3592 4.10281 79.2291 4.24493 79.0786 4.40251L79.3149 4.33763C79.4007 4.316 79.4864 4.30673 79.5687 4.30673C79.651 4.1677 79.7227 4.02557 79.791 3.88345C79.9182 3.60538 80.0104 3.35512 80.0617 3.13576C80.0792 3.04616 80.0891 2.96583 80.0891 2.90094C80.0757 2.7372 80.0174 2.62597 79.9147 2.56108C79.8493 2.52401 79.7671 2.50547 79.6679 2.50547C79.5547 2.50547 79.4316 2.53019 79.291 2.57962C79.1229 2.63832 78.9555 2.71865 78.784 2.82679C78.6124 2.93493 78.4654 3.04925 78.3452 3.17283C78.2081 3.30877 78.1124 3.43236 78.0646 3.54359C77.924 3.95451 77.8452 4.30673 77.8347 4.59406C77.8347 4.70529 77.8417 4.79798 77.8586 4.87522C77.893 5.04206 77.9753 5.15947 78.1124 5.22744C78.1877 5.26761 78.2769 5.28614 78.3831 5.28614ZM78.5885 5.63836C78.4549 5.63836 78.3283 5.61982 78.2046 5.58584C78.0097 5.53331 77.8417 5.44062 77.6941 5.30777C77.54 5.16873 77.4304 4.98954 77.3656 4.77017C77.3172 4.62805 77.2967 4.47357 77.2967 4.30982C77.2967 4.20477 77.3038 4.09045 77.3242 3.97305C77.3038 3.96687 77.2833 3.96069 77.2658 3.95142C77.2145 3.92361 77.1871 3.87109 77.1871 3.80003C77.1871 3.68262 77.2524 3.52814 77.3825 3.33349C77.4817 3.18519 77.6089 3.03689 77.7664 2.8855C77.9205 2.7341 78.0955 2.60125 78.2904 2.48075C78.6159 2.28301 78.9415 2.18415 79.2671 2.18415C79.4077 2.18415 79.5378 2.19342 79.6644 2.21813C80.0279 2.28611 80.2846 2.40969 80.4322 2.59198C80.5005 2.6754 80.5349 2.77736 80.5349 2.89786V2.95656C80.4871 3.43236 80.3704 3.88345 80.1889 4.3129C80.0827 4.56626 79.952 4.78871 79.798 4.98645C79.459 5.42209 79.0547 5.63836 78.5885 5.63836Z" fill="var(--fill-0, #A7A7A7)"/>
<path id="Vector_4" d="M75.4554 15.3863C74.9635 15.3434 74.46 15.3471 73.9746 15.411C73.7879 15.4357 73.628 15.5308 73.5218 15.6446C73.4028 15.7732 73.324 15.966 73.3363 16.1248C73.3474 16.2715 73.3905 16.4395 73.5341 16.5502C73.6589 16.6468 73.8235 16.7144 74.0084 16.69C74.2774 16.6546 74.5499 16.6384 74.8235 16.6396C74.9291 16.6435 75.0341 16.6493 75.1392 16.6585C75.3294 16.6751 75.4927 16.6365 75.6357 16.5417C75.7862 16.4412 75.9035 16.2702 75.9332 16.1206C75.9647 15.9643 75.9647 15.7862 75.8585 15.642C75.7751 15.528 75.6415 15.4025 75.4554 15.3863Z" fill="var(--fill-0, #A7A7A7)"/>
</g>
</svg>
